<?xml version="1.0" standalone="no"?><!DOCTYPE svg PUBLIC "-//W3C//DTD SVG 1.1//EN" "http://www.w3.org/Graphics/SVG/1.1/DTD/svg11.dtd"><svg t="1497712616696" class="icon" style="" viewBox="0 0 1024 1024" version="1.1" xmlns="http://www.w3.org/2000/svg" p-id="34125" xmlns:xlink="http://www.w3.org/1999/xlink" width="40" height="40"><defs><style type="text/css"></style></defs><path d="M658.190569 302.038374c-14.652358-16.650407-45.122602-18.814959-59.774959-18.315447a88.913171 88.913171 0 0 1-86.249106 68.100162 88.913171 88.913171 0 0 1-86.582114-68.766178c-14.652358 0-45.122602 0.999024-59.774959 18.315447-18.481951 21.812033-88.580163 107.395122-128.874146 156.513821a11.155772 11.155772 0 0 0 3.163577 16.650406l78.090406 43.790569V466.211382a13.320325 13.320325 0 1 1 26.807155 0v71.430244a12.987317 12.987317 0 0 1 0 7.992195v176.494309a16.650407 16.650407 0 0 0 16.650406 16.650407h299.707317a16.650407 16.650407 0 0 0 16.650407-16.650407V546.299837a13.153821 13.153821 0 0 1 0-7.992195V466.211382a13.320325 13.320325 0 0 1 26.807154 0v52.448781l78.256911-43.79057a11.155772 11.155772 0 0 0 5.494634-7.659186 10.989268 10.989268 0 0 0-2.331057-9.157724c-39.294959-48.452683-109.559675-134.202276-128.041626-156.014309z m-29.138211 25.80813c-1.831545 3.330081-45.122602 82.086504-117.55187 82.086504-80.587967 0-118.883902-79.255935-120.548943-83.252032a13.320325 13.320325 0 0 1 24.309593-10.323252c0 0.999024 33.300813 66.601626 96.405854 66.601626 56.611382 0 93.575285-66.601626 93.908293-67.933659a13.320325 13.320325 0 0 1 23.643577 12.654309z" fill="#00907F" p-id="34126"></path><path d="M512 0A512 512 0 1 0 1024 512 512 512 0 0 0 512 0zM815.869919 472.871545a37.962927 37.962927 0 0 1-18.981464 26.64065l-91.244227 49.95122v173.330731a44.290081 44.290081 0 0 1-44.123578 44.123578h-299.707317a44.290081 44.290081 0 0 1-44.123577-44.123578V549.463415l-90.578211-49.95122a37.962927 37.962927 0 0 1-10.65626-57.77691c40.293984-49.95122 110.558699-135.034797 129.04065-157.013334 25.641626-30.137236 74.926829-28.472195 89.412683-27.306666h3.996097a13.486829 13.486829 0 0 1 11.655285 11.988292v1.332033a62.106016 62.106016 0 0 0 61.44 53.947317 62.106016 62.106016 0 0 0 61.44-53.947317v-1.332033a13.486829 13.486829 0 0 1 11.655285-11.988292h3.996097c14.485854-1.165528 63.771057-2.997073 89.412683 27.306666 18.648455 21.978537 88.913171 107.72813 129.04065 157.013334a37.796423 37.796423 0 0 1 8.325204 31.13626z" fill="#00907F" p-id="34127"></path></svg>