<?xml version="1.0" standalone="no"?><!DOCTYPE svg PUBLIC "-//W3C//DTD SVG 1.1//EN" "http://www.w3.org/Graphics/SVG/1.1/DTD/svg11.dtd"><svg t="1497712740992" class="icon" style="" viewBox="0 0 1024 1024" version="1.1" xmlns="http://www.w3.org/2000/svg" p-id="43698" xmlns:xlink="http://www.w3.org/1999/xlink" width="40" height="40"><defs><style type="text/css"></style></defs><path d="M512 2.323C230.513 2.323 2.323 230.513 2.323 512S230.513 1021.677 512 1021.677 1021.677 793.487 1021.677 512 793.487 2.323 512 2.323zM502.027 313.016l63.905 60.339 63.905-60.339 49.916 0-86.942 82.281 81.458 0 0 15.634-87.217 0 0 51.563 87.217 0 0 15.359-87.217 0L587.052 572.2l-42.238 0 0-94.347-87.217 0 0-15.359 87.217 0L544.814 410.93l-87.217 0 0-15.634 81.458 0-86.945-82.281L502.027 313.015zM279.305 268.21c16.195-5.965 30.686 5.118 30.686 5.118L399.9 421.269c0 0 11.015 23.826-4.276 34.914-3.403 2.467-8.997 5.557-15.57 9.209L263.486 274.608C270.541 271.422 276.215 269.347 279.305 268.21zM618.111 837.46c-56.307-10.235-170.625-87.014-257.645-187.683C273.452 549.11 203.454 472.759 189.815 389.233c-9.33-57.159 28.437-89.967 58.398-106.893l117.012 191.499c-20.573 12.273-42.203 28.474-38.504 46.987 5.954 29.775 122.702 153.323 148.646 162.258 23.885 8.224 34.824 0.782 57.297-31.496l184.57 130.302C691.179 814.422 642.176 841.836 618.111 837.46zM726.818 767.774l-184.396-130.18c11.496-14.83 24.679-21.806 38.498-20.164 11.337 1.356 103.548 69.289 137.314 94.821C738.377 727.482 737.869 747.863 726.818 767.774zM819.628 477.112l-63.981 0c0.205-3.831 0.317-7.685 0.317-11.569 0-117.918-95.625-213.542-213.542-213.542l0-63.923c153.213 0 277.459 124.253 277.459 277.465C819.881 469.423 819.787 473.276 819.628 477.112z" p-id="43699" fill="#d7ad55"></path></svg>