<?xml version="1.0" standalone="no"?><!DOCTYPE svg PUBLIC "-//W3C//DTD SVG 1.1//EN" "http://www.w3.org/Graphics/SVG/1.1/DTD/svg11.dtd"><svg t="1497748701816" class="icon" style="" viewBox="0 0 1024 1024" version="1.1" xmlns="http://www.w3.org/2000/svg" p-id="2675" xmlns:xlink="http://www.w3.org/1999/xlink" width="24" height="24"><defs><style type="text/css"></style></defs><path d="M914.15 227.116c-14.921-14.885-35.487-24.122-58.111-24.122l-154.629 0.002c-5.124-43.716-25.017-82.906-54.562-112.448-34.513-34.514-82.191-55.868-134.847-55.868-52.652 0-100.33 21.352-134.845 55.868-29.543 29.543-49.433 68.731-54.558 112.446l-154.633 0.002c-22.663 0-43.226 9.236-58.113 24.121-14.921 14.919-24.153 35.488-24.153 58.149l-0.005 624.465c0 22.662 9.237 43.229 24.158 58.15 14.883 14.881 35.454 24.118 58.113 24.118h688.072c22.624 0 43.192-9.237 58.113-24.119 14.884-14.921 24.158-35.488 24.158-58.15v-624.465c0-22.661-9.271-43.23-24.157-58.149zM817.641 505.491v0c18.248 5.383 3.217 41.469-18.473 37.284-15.407-2.957-11.855-46.298 18.473-37.284zM786.678 473.592v0c23.183 6.879 4.078 52.689-23.483 47.38-19.561-3.739-15.072-58.823 23.483-47.38zM703.996 513.418c-25.468-4.899-16.601-79.765 33.542-64.881v0c30.178 8.975 2.321 71.798-33.542 64.881zM408.866 122.258c26.399-26.363 62.863-42.705 103.134-42.705 40.275 0 76.737 16.343 103.141 42.706v0h-0.004c26.362 26.401 42.711 62.861 42.706 103.136 0 40.274-16.343 76.734-42.706 103.136-26.402 26.4-62.861 42.705-103.137 42.705-40.275 0-76.734-16.305-103.136-42.706s-42.706-62.861-42.706-103.136c0.001-40.273 16.307-76.734 42.708-103.136zM297.771 448.538h-0.002c50.147-14.885 59.012 59.98 33.542 64.881-35.862 6.918-63.717-55.906-33.54-64.881zM248.633 473.592h-0.002c38.554-11.443 43.044 43.642 23.484 47.38-27.562 5.308-46.667-40.501-23.482-47.38zM217.67 505.491v0c30.325-9.012 33.878 34.328 18.471 37.284-21.689 4.185-36.722-31.901-18.471-37.284zM190.856 597.41c-16.153 3.104-27.371-23.786-13.762-27.828 22.623-6.729 25.241 25.62 13.762 27.828zM207.907 567.792c-18.922 3.664-32.008-27.788-16.075-32.534h-0.004c26.438-7.854 29.505 29.952 16.079 32.534zM429.619 872.937c-2.169 46.072-52.578 62.188-83.317 41.322-34.071-23.073-45.883-80.812-66.076-127.783-12.717-29.579-31.525-56.654-45.548-78.416-22.777-35.377-31.897-75.203 3.292-114.58 26.997-30.178 58.148-49.663 92.216-52.954h-0.002c41.282-4.038 63.835 26.477 60.209 72.248-3.032 38.068-20.193 65.216-14.549 102.988 7.477 50.223 56.992 88.066 53.774 157.175zM355.986 381.408c-34.963-34.963-58.221-81.597-63.496-133.538l30.102 0.002c5.123 43.676 25.018 82.868 54.562 112.372 34.514 34.516 82.194 55.868 134.845 55.868 52.653 0 100.335-21.352 134.847-55.868 29.542-29.505 49.436-68.695 54.562-112.373l30.138 0.001c-5.273 51.903-28.568 98.574-63.535 133.537-39.939 39.937-95.096 64.62-156.014 64.62-60.912-0.001-116.068-24.683-156.010-64.62zM800.631 708.061c-14.022 21.762-32.832 48.837-45.549 78.417-20.192 46.971-32.007 104.707-66.076 127.782-30.74 20.866-81.145 4.747-83.316-41.322-3.219-69.109 46.297-106.952 53.774-157.172 5.645-37.77-11.515-64.919-14.55-102.988-3.627-45.772 18.926-76.286 60.212-72.248h-0.003c34.067 3.293 65.215 22.776 92.215 52.954 35.19 39.374 26.069 79.2 3.293 114.577zM827.401 567.792c-13.426-2.582-10.357-40.388 16.081-32.534h-0.003c15.932 4.747 2.844 36.198-16.078 32.534zM844.453 597.41c-11.481-2.208-8.861-34.557 13.762-27.828 13.61 4.042 2.393 30.932-13.762 27.828z" p-id="2676" fill="#707070"></path><path d="M511.998 270.308c16.527 0 29.918-13.388 29.918-29.916 0-5.461-1.457-10.622-4.038-14.997l41.43-71.798c4.15-7.142 1.722-16.268-5.422-20.38-7.143-4.151-16.268-1.721-20.377 5.423l-41.471 71.837h-0.041c-16.528 0-29.914 13.387-29.916 29.917 0 16.53 13.388 29.915 29.916 29.916z" p-id="2677" fill="#707070"></path></svg>