<?xml version="1.0" standalone="no"?><!DOCTYPE svg PUBLIC "-//W3C//DTD SVG 1.1//EN" "http://www.w3.org/Graphics/SVG/1.1/DTD/svg11.dtd"><svg t="1497712525449" class="icon" style="" viewBox="0 0 1024 1024" version="1.1" xmlns="http://www.w3.org/2000/svg" p-id="28779" xmlns:xlink="http://www.w3.org/1999/xlink" width="40" height="40"><defs><style type="text/css"></style></defs><path d="M806.72 309.12l-89.6 90.88-41.28 41.92a48.32 48.32 0 0 1-27.52 13.12H640l-7.36-7.04a27.52 27.52 0 0 1 4.16-35.84c7.04-8 118.08-133.12 128-143.36a9.92 9.92 0 0 0 0-10.56c-3.52-8-14.08-14.72-22.08-7.04L627.2 368l-12.8 13.12a51.84 51.84 0 0 1-29.76 14.72H576l-7.04-6.72c-13.44-14.4 2.88-37.44 6.4-41.92 51.2-54.08 124.8-132.16 130.56-139.84a11.84 11.84 0 0 0 0-10.56 14.4 14.4 0 0 0-23.36-6.4c-23.68 18.56-141.76 128-156.16 160l-1.92 3.52c-10.56 21.76-13.44 28.16-10.24 45.12a76.8 76.8 0 0 0 24 32l11.84 10.88-46.08 48.64-12.48-10.56-226.88-232.64c-29.44-32-46.08-36.8-55.04-36.8-18.88 0-19.52 32-19.52 32A218.88 218.88 0 0 0 192 320a433.28 433.28 0 0 0 72.96 97.92c17.6 19.52 35.84 38.08 50.88 52.16 21.76 20.16 29.12 23.68 32 24a256 256 0 0 0 62.08 0h8.32l34.88 38.4-11.2 10.88c-48 45.44-221.12 210.56-233.28 224a50.24 50.24 0 0 0-9.6 36.8 32 32 0 0 0 10.88 24.32 54.4 54.4 0 0 0 61.76 0L503.36 576l11.84 13.44c67.84 77.76 198.08 227.84 206.08 237.44a34.24 34.24 0 0 0 25.92 8.96 46.4 46.4 0 0 0 29.44-9.6 35.84 35.84 0 0 0 13.12-26.88 47.04 47.04 0 0 0-8.96-32L544 531.52l45.44-54.4 12.16 9.6a115.84 115.84 0 0 0 46.08 23.36c11.84 0 35.84-9.92 99.84-79.04 25.92-27.84 55.04-61.76 86.08-100.8l2.56-2.88s1.92-2.24 0-6.08c-4.16-9.92-22.72-18.56-29.44-12.16z" fill="#DD684F" p-id="28780"></path><path d="M512 0a512 512 0 1 0 512 512A512 512 0 0 0 512 0z m347.84 347.52l-2.56 3.2c-32 39.04-60.8 73.6-87.36 102.08C684.8 544 658.88 544 640 541.76a134.72 134.72 0 0 1-47.04-20.48l-7.04 8.32 216.96 216.96a77.12 77.12 0 0 1 18.24 56 67.52 67.52 0 0 1-24.64 50.24 78.4 78.4 0 0 1-100.48-4.16c-6.4-8-116.16-134.4-192-224l-206.72 224a69.12 69.12 0 0 1-51.84 20.48A89.28 89.28 0 0 1 192 854.4a64 64 0 0 1-24-47.36 81.28 81.28 0 0 1 18.24-61.44c12.48-13.12 170.88-164.16 224-214.08l-2.88-3.2a245.76 245.76 0 0 1-64-1.92 113.6 113.6 0 0 1-45.76-32c-16-14.72-34.56-33.92-52.8-54.08a440.64 440.64 0 0 1-80-110.72 242.88 242.88 0 0 1-4.48-88.32 56.96 56.96 0 0 1 51.52-64A119.36 119.36 0 0 1 288 224l215.04 219.52a86.72 86.72 0 0 1-22.08-39.04 84.48 84.48 0 0 1 11.52-64l2.88-6.08c18.88-40 147.2-156.48 165.12-170.56a47.04 47.04 0 0 1 72 17.28A44.8 44.8 0 0 1 736 216.96a41.28 41.28 0 0 1 13.76-2.24 49.28 49.28 0 0 1 42.88 29.76 42.88 42.88 0 0 1 0 34.88 56.32 56.32 0 0 1 71.36 28.48 36.8 36.8 0 0 1-4.16 39.68z" fill="#DD684F" p-id="28781"></path></svg>