<?xml version="1.0" standalone="no"?><!DOCTYPE svg PUBLIC "-//W3C//DTD SVG 1.1//EN" "http://www.w3.org/Graphics/SVG/1.1/DTD/svg11.dtd"><svg t="1497716226225" class="icon" style="" viewBox="0 0 1024 1024" version="1.1" xmlns="http://www.w3.org/2000/svg" p-id="3284" xmlns:xlink="http://www.w3.org/1999/xlink" width="43" height="43"><defs><style type="text/css"></style></defs><path d="M662.118 522.662l108.802-108.837-177.79-177.824-349.242 349.276 65.509 65.509v-56.486c0-1.172 0.103-2.378 0.171-3.514 4.27-57.14 110.834-87.001 216.225-87.001 48.564 0.033 97.365 6.372 136.321 18.875z" p-id="3285" fill="#f39e36"></path><path d="M690.013 655.293c-16.22 7.578-35.34 13.741-56.347 18.391-6.269 1.413-12.675 2.718-19.25 3.788-14.019 2.481-28.761 4.27-43.742 5.511-1.309 0.103-2.583 0.24-3.891 0.347-13.569 0.997-27.313 1.482-41.023 1.482h-0.412c-8.334 0-16.672-0.171-24.937-0.62-6.578-0.276-13.088-0.687-19.598-1.205-21.87-1.825-43.225-4.927-62.961-9.333-20.941-4.647-40.124-10.814-56.314-18.391-9.986 6.715-15.186 13.261-15.186 18.357 0 5.169 5.274 11.71 15.186 18.427 5.579 3.788 12.606 7.613 21.25 11.295 8.3 3.549 18.151 6.89 29.205 9.951 14.294 3.997 30.794 7.406 49.492 9.813 3.033 0.412 6.166 0.754 9.369 1.066 15.909 1.754 33.27 2.858 52.077 2.925 0.966 0 1.859 0.033 2.822 0.033 7.062 0 13.879-0.103 20.529-0.412 37.508-1.45 68.607-6.612 93.166-13.468 11.126-3.066 20.941-6.406 29.276-9.951 8.643-3.685 15.637-7.511 21.215-11.295 9.951-6.683 15.223-13.261 15.223-18.427 0.069-5.062-5.202-11.573-15.154-18.29z" p-id="3286" fill="#f39e36"></path><path d="M689.981 734.652c-41.744 19.494-103.188 29.515-164.186 29.515-10.059 0-20.046-0.276-30.033-0.827-2.822-0.138-5.682-0.378-8.506-0.516-19.876-1.413-39.299-3.891-57.62-7.406-0.138-0.033-0.24-0.033-0.347-0.069-6.683-1.277-13.223-2.718-19.562-4.27-17.771-4.34-34.029-9.884-48.115-16.464-9.92 6.715-15.186 13.261-15.186 18.391 0 0.103 0.033 0.138 0.033 0.171 0.138 6.372 8.025 14.706 22.905 22.935 17.255 9.542 44.051 18.875 79.974 24.66 22.145 3.584 47.669 5.717 76.495 5.717 116.103 0 179.408-35.34 179.408-53.489 0-5.097-5.274-11.607-15.258-18.357z" p-id="3287" fill="#f39e36"></path><path d="M530.098 29.829c-266.306 0-482.188 215.883-482.188 482.188s215.883 482.188 482.188 482.188c266.237 0 482.188-215.883 482.188-482.188 0-266.306-215.954-482.188-482.188-482.188zM836.877 516.597l-94.645 68.435v168.043c0 59.481-108.905 90.515-216.433 90.515-107.564 0-216.401-31.031-216.401-90.515v-36.852l-114.586-114.519c-9.058-9.094-9.058-23.699 0-32.754l381.997-381.962c8.611-8.643 23.971-8.643 32.653 0l210.477 210.51c9.058 9.027 9.058 23.66 0 32.719l-9.884 9.92c12.675 17.599 31.413 43.465 31.927 44.188 3.617 4.956 5.097 11.161 4.099 17.22-0.895 5.993-4.238 11.47-9.197 15.052z" p-id="3288" fill="#f39e36"></path><path d="M703.999 541.709c2.547 1.654 9.951 5.547 10.78 6.13l76.22-55.175c-3.651-5.062-16.016-17.461-16.016-17.461-0.687-0.861-70.985 66.507-70.985 66.507z" p-id="3289" fill="#f39e36"></path></svg>