<?xml version="1.0" standalone="no"?><!DOCTYPE svg PUBLIC "-//W3C//DTD SVG 1.1//EN" "http://www.w3.org/Graphics/SVG/1.1/DTD/svg11.dtd"><svg t="1497714464876" class="icon" style="" viewBox="0 0 1024 1024" version="1.1" xmlns="http://www.w3.org/2000/svg" p-id="5657" xmlns:xlink="http://www.w3.org/1999/xlink" width="40" height="40"><defs><style type="text/css"></style></defs><path d="M579.980146 260.464031c-3.944719 0-8.084884 0.630336-12.405144 1.93501-22.904953 6.884584-43.950619 31.395054-37.860095 53.895814 4.62008 2.070082 26.459806-5.025296 38.159914-8.850292 16.605682-5.460187 35.340796-11.715458 51.360142-10.889676C611.045706 272.884524 597.380912 260.464031 579.980146 260.464031z" p-id="5658" fill="#e89abe"></path><path d="M772.822172 640.89869c-12.420493 0-24.614843 2.369901-35.280423 6.870258-7.447384 3.131217-15.299985 8.784803-22.61639 16.054138 22.276664 4.944457 42.006399 15.362405 55.587285 31.556731 5.460187 6.494717 4.62008 16.185117-1.889986 21.629955-6.510066 5.460187-16.200466 4.635429-21.629955-1.889986-11.74718-13.987125-30.48434-22.151824-51.904524-23.632501-4.145281 8.366284-7.316405 17.343462-8.696801 26.722787-3.255033 22.140568 3.599876 40.395767 20.370305 54.256006 13.905263 11.474989 29.070176 17.309694 45.075197 17.309694 34.965255 0 64.33525-26.835347 74.205746-52.080527 12.119651-30.989837 12.465517-56.265715 0.97518-73.081168C816.878188 649.763308 796.627606 640.89869 772.822172 640.89869z" p-id="5659" fill="#e89abe"></path><path d="M357.27286 300.035039c5.309766-2.835491 4.169839-12.389795 3.435129-16.365213-4.005092-21.615629-24.645542-47.715242-47.820639-50.625432-18.40562-2.099757-37.215433 10.979724-54.015537 37.905119 13.380324 3.014564 26.325757 10.050592 38.370709 16.604659C322.967617 301.535158 339.812745 309.349898 357.27286 300.035039z" p-id="5660" fill="#e89abe"></path><path d="M511.999996 0c-282.768322 0-512 229.232701-512 512S229.231674 1024 511.999996 1024s512-229.232701 512-512S794.767295 0 511.999996 0zM854.663585 748.88474c-13.920612 35.580242-53.715718 71.610724-102.825682 71.610724-23.010351 0-45.36069-8.429727-64.636092-24.360048-24.915686-20.564727-36.000807-49.830348-31.200632-82.396027 0.916853-6.247085 2.576603-12.438912 4.55766-18.570367-24.1073 6.699371-44.462256 21.416091-56.008874 42.105657-10.215339 18.315572-17.009875 38.670528-23.564965 58.350123-15.930321 47.760266-32.399908 97.141398-97.036 105.210932-8.384703 1.049879-16.214791 1.529794-23.490266 1.529794-42.555897 0-66.825898-16.380562-80.130499-31.395054-23.970181-27.015443-30.37485-69.135426-18.045428-118.575907 1.754914-7.019656 4.890224-16.380562 8.580148-27.315262 14.829279-43.88513 39.184211-116.728898 5.043715-153.839958-47.794034-9.566584-91.226877-22.593878-114.424487-31.547521-33.180666-12.795012-56.205342-34.590737-68.43039-64.755815-25.995239-64.125479 4.680453-148.546564 25.274855-193.157194 0-0.015349 0.015349-0.015349 0.015349-0.015349 0.150421-0.360192 0.299819-0.705035 0.479915-1.049879 32.880847-70.531171 71.250532-81.510895 97.876108-78.150465 38.069866 4.770501 68.160246 42.90074 74.205746 75.51042 4.11049 22.095544-3.045262 40.440791-19.14033 49.050614-33.300389 17.835657-64.2759 0.959831-89.190563-12.58524-17.354718-9.420256-29.445718-15.405382-38.909974-14.220431-15.675526 35.325447-43.380656 110.686469-22.140568 163.08114 9.030388 22.289966 25.725095 37.875444 51.030648 47.640543 69.360546 26.745299 225.42203 60.420206 276.317606 29.369995 48.915542-29.86526 80.880559-134.386506 77.070912-205.877507-1.964685-1.48477-3.599876-3.464804-4.680453-5.865404-2.595022-5.550235-32.53498 4.259887-43.815547 7.965161-23.940506 7.845438-46.590665 15.27031-62.940528 6.435367-7.170077-3.87002-12.164675-10.350411-14.430203-18.735114-10.889676-40.170647 22.170243-80.386318 58.665292-91.350693 30.105729-9.105087 71.851194 0 90.136067 55.350909 26.100637 78.990573-11.355266 233.942829-83.986194 278.297641-20.010113 12.209699-49.154988 16.935176-81.810714 16.935176-21.281018 0-44.045783-2.083385-66.78292-5.315906 19.753271 49.680951-2.158084 114.702817-16.318142 156.651913-3.374756 9.97487-6.284946 18.509994-7.875113 24.930012-9.810123 39.31519-5.834705 71.550351 11.204845 90.766404 15.32966 17.280019 41.910212 24.060229 76.830442 19.755318 43.320283-5.415163 54.916018-34.140496 71.700772-84.45076 7.00533-21.030316 14.265456-42.779994 25.889842-63.60054 19.244704-34.515014 55.84515-57.49569 97.860759-61.485433 0.682523-0.063443 1.31286 0.076746 1.993337 0.022512 12.699847-18.467016 29.557254-33.61351 48.047806-41.392435 14.385179-6.059826 30.705367-9.269834 47.190303-9.269834 34.46999 0 63.465468 13.529722 79.560536 37.110036C864.578082 665.139015 874.853794 697.25343 854.663585 748.88474z" p-id="5661" fill="#e89abe"></path></svg>