<?xml version="1.0" standalone="no"?><!DOCTYPE svg PUBLIC "-//W3C//DTD SVG 1.1//EN" "http://www.w3.org/Graphics/SVG/1.1/DTD/svg11.dtd"><svg t="1497723908491" class="icon" style="" viewBox="0 0 1024 1024" version="1.1" xmlns="http://www.w3.org/2000/svg" p-id="13814" xmlns:xlink="http://www.w3.org/1999/xlink" width="40" height="40"><defs><style type="text/css"></style></defs><path d="M943.585017 360.442212L663.612535 80.538291a56.008618 56.008618 0 0 0-53.090149-14.733563c-10.04375 2.450818-19.037589 7.629771-26.142404 14.733563-6.369058 6.334265-11.128455 14.208607-13.894451 22.992667-12.703323 41.12156-34.611286 76.853365-67.088978 109.259426-43.289945 43.325761-99.739609 76.152401-159.444409 110.798479-63.413262 36.746926-128.892579 74.823126-182.542476 128.438231-45.635363 45.635363-76.677357 96.451726-94.874811 155.385976a56.050574 56.050574 0 0 0 13.893429 56.134485L360.401792 943.449429a56.175417 56.175417 0 0 0 53.090148 14.769379c10.04375-2.51938 19.037589-7.66354 26.142404-14.769379 6.369058-6.369058 11.128455-14.208607 13.893428-23.062252 12.704346-41.12156 34.612309-76.887135 67.088978-109.295241 43.290969-43.256176 99.740632-76.011184 159.480224-110.694102 63.379493-36.780695 128.856763-74.856895 182.506661-128.472 45.636387-45.565778 76.677357-96.41591 94.875834-155.385976 6.088672-19.8767 0.769526-41.434691-13.894452-56.097646zM400.018068 903.834176c-92.741217-92.671633-187.232289-187.232289-279.972483-279.902897 79.582523-257.539564 424.403966-246.305709 503.950674-503.811504 92.740194 92.671633 187.231265 187.197496 279.973505 279.902898-79.547731 257.504772-424.404989 246.306732-503.951696 503.811503z m211.694423-422.618296c-9.135054-7.664563-18.303878-12.879332-27.542286-15.46932-9.203616-2.555196-18.373463-3.569292-27.68248-2.939959-9.169847 0.698918-18.583241 2.799766-27.997657 6.438643-9.413394 3.6399-18.862603 7.629771-28.381398 12.248975-15.048741-17.288758-30.062689-34.366715-45.110407-50.184983 6.788613-6.124488 13.368472-9.238408 19.702738-9.448186a63.827701 63.827701 0 0 1 18.23327 1.819439c5.913687 1.50426 11.30344 2.764973 16.30843 3.709485 5.039783 1.01512 9.414417-0.069585 13.22828-3.28993 4.060479-3.498684 6.299473-8.049327 6.615674-13.508665 0.278339-5.529947-1.784646-10.883885-6.404873-16.098653-5.91471-6.789637-13.019525-10.918677-21.557992-12.423961-8.43409-1.505283-17.043165-1.36509-26.037003 0.594541-8.853645 2.030239-17.288758 5.319146-25.267476 10.043751-7.978718 4.725628-14.383592 9.519818-19.14299 14.244422-1.820462-1.785669-3.6399-3.464915-5.459338-5.179976-2.029216-1.820462-4.549619-2.870374-7.559163-2.799766-3.045359 0-5.564739 1.329275-7.629771 3.709485-2.029216 2.38021-2.939959 5.109368-2.589988 7.978719 0.280386 3.010567 1.470491 5.320169 3.569292 7.070022a650.728598 650.728598 0 0 1 5.459339 4.653997c-7.1744 8.643867-13.08911 18.163685-17.743107 28.242227-4.689812 10.149151-7.489578 20.158109-8.53949 29.887705-1.084705 9.764388-0.034792 18.72241 2.939959 27.01733 3.009544 8.399297 8.53949 15.503089 16.623609 22.223141 13.193487 10.95347 28.696576 15.573697 46.720068 14.523784 17.952884-1.048889 37.270858-6.40385 58.059324-17.569144 16.553001 19.10922 33.107025 38.006616 49.625234 55.645345-6.999414 5.879917-13.123902 9.31004-18.513656 10.358928-5.424546 1.155313-10.218736 1.048889-14.594393-0.279362-4.373611-1.36509-8.43409-3.289929-12.142551-5.845125-3.745301-2.554172-7.385201-4.723581-11.059894-6.544043-3.604084-1.784646-7.349385-2.798742-11.163247-2.870374-3.780093-0.034792-7.839549 1.819438-12.319583 5.670139-4.619204 3.987824-6.894014 8.608052-6.894014 13.858636 0 5.179976 2.415003 10.498098 7.103791 15.817244 4.759397 5.390777 10.95347 9.869788 18.407232 13.43908 7.489578 3.570315 15.924691 5.809309 25.197892 6.404874 9.31004 0.665149 19.108197-0.734734 29.432333-4.584412 10.393721-3.77907 20.683065-10.638291 30.798447-20.787442a470.189755 470.189755 0 0 0 14.697747 13.648858c2.065032 1.819438 4.583388 2.730181 7.66354 2.484588 2.939959-0.104377 5.495154-1.505283 7.559163-3.953032 2.066055-2.520403 2.940982-5.285377 2.62478-8.18952-0.280386-2.939959-1.505283-5.214768-3.499707-6.860244a334.788949 334.788949 0 0 1-14.769379-12.422938c8.364505-10.254551 15.083533-21.103644 20.088524-31.812543 4.969175-10.778484 7.909134-21.172205 8.890485-30.797423 0.979304-9.69378-0.176009-18.408255-3.325745-26.352181-3.078105-8.014534-8.642844-14.909571-16.621563-21.522176z m-156.50445 18.96698c-7.944949 0.314155-14.838963-2.310625-20.892843-8.188496-2.589988-2.450818-4.374634-5.424546-5.459338-8.994862-1.154289-3.5345-1.539053-7.453762-1.085728-11.688203 0.384763-4.199649 1.644453-8.574283 3.814885-13.019525 2.099824-4.444219 5.179976-8.853645 9.099239-13.123902 14.173814 14.104229 28.347628 29.607318 42.555212 45.600571-10.778484 5.91471-20.122293 9.063423-28.031427 9.414417z m132.042315 55.995315c-2.521426 4.688789-5.389754 8.818853-8.785083 12.423961-15.678074-15.85306-31.357172-33.246195-47.035247-51.130518 4.024663-1.749854 8.224312-3.6399 12.738116-5.529946 4.549619-1.924839 9.064446-3.184529 13.614066-3.988848a35.400255 35.400255 0 0 1 13.823843 0.629333c4.549619 1.12052 8.853645 3.569292 12.844539 7.488555 3.955078 3.920286 6.438643 8.049327 7.453763 12.459776 1.084705 4.479011 1.155313 9.029654 0.385786 13.648858-0.841158 4.688789-2.450818 9.309016-5.039783 13.998829zM476.09986 684.965353h-0.069585c-17.498536 13.438057-34.576493 27.577079-50.395783 43.465955-15.187911 15.187911-28.942169 31.216979-40.910759 47.561225l-19.142989 26.142404 0.070608 0.068561c-3.499707 5.460362-2.939959 12.773931 1.819439 17.533328 5.459339 5.425569 14.418384 5.425569 19.877723 0 0.839111-0.873903 1.540076-1.783623 2.099824-2.798742l17.883299-24.496927c11.093662-15.153118 23.902386-30.061666 38.110993-44.200688 15.678074-15.748682 30.236652-27.857465 47.980781-41.295522l-0.069585-0.069584c0.524956-0.384763 0.980327-0.700965 1.434675-1.120521 5.494131-5.493108 5.494131-14.418384 0-19.877723-5.073552-5.146207-13.193487-5.390777-18.688641-0.911766zM657.663032 206.946282c-5.494131-5.494131-14.453177-5.494131-19.9821 0-1.01512 1.01512-1.749854 2.205225-2.415002 3.430123l-18.61701 25.477254c-11.094686 15.222703-23.938202 30.061666-38.077224 44.200688-14.594393 14.663978-30.516014 27.857465-46.929845 40.385803-1.190105 0.665149-2.344395 1.399883-3.324722 2.449795-5.494131 5.494131-5.494131 14.488992 0 20.017915 5.389754 5.389754 14.033621 5.494131 19.597337 0.349971l0.105401 0.069585c17.534352-13.43908 34.542724-27.647687 50.359967-43.465954 15.189957-15.188934 28.943193-31.147394 40.910759-47.490617l19.144012-26.282597-0.069584-0.034792c4.757351-5.563716 4.546549-13.892405-0.701989-19.107174z" fill="#d4237a" p-id="13815"></path></svg>