<?xml version="1.0" standalone="no"?><!DOCTYPE svg PUBLIC "-//W3C//DTD SVG 1.1//EN" "http://www.w3.org/Graphics/SVG/1.1/DTD/svg11.dtd"><svg t="1497716356825" class="icon" style="" viewBox="0 0 1024 1024" version="1.1" xmlns="http://www.w3.org/2000/svg" p-id="5681" xmlns:xlink="http://www.w3.org/1999/xlink" width="40" height="40"><defs><style type="text/css"></style></defs><path d="M512 512m-512 0a512 512 0 1 0 1024 0 512 512 0 1 0-1024 0Z" fill="#31A487" p-id="5682"></path><path d="M762.311111 301.511111h-176.355555v-34.133333c0-17.066667-11.377778-28.444444-28.444445-28.444445H460.8c-17.066667 0-28.444444 11.377778-28.444444 28.444445v34.133333h-170.666667c-34.133333 0-56.888889 22.755556-56.888889 56.888889v369.777778c0 34.133333 22.755556 56.888889 56.888889 56.888889h261.688889v-22.755556H261.688889c-17.066667 0-34.133333-17.066667-34.133333-34.133333V358.4c0-17.066667 17.066667-34.133333 34.133333-34.133333H455.111111v-56.888889c0-5.688889 0-5.688889 5.688889-5.688889h91.022222c5.688889 0 5.688889 0 5.688889 5.688889v56.888889h199.111111c22.755556 0 39.822222 17.066667 39.822222 34.133333v142.222222h22.755556V358.4c0-34.133333-22.755556-56.888889-56.888889-56.888889z" fill="#FFFFFF" p-id="5683"></path><path d="M534.755556 585.955556l-56.888889-28.444445 11.377777-11.377778c0-5.688889 5.688889-11.377778 5.688889-17.066666v-51.2c0-45.511111-34.133333-79.644444-79.644444-79.644445-45.511111 0-79.644444 34.133333-79.644445 79.644445v51.2c0 5.688889 0 11.377778 5.688889 17.066666l11.377778 11.377778-56.888889 28.444445c-11.377778 5.688889-17.066667 11.377778-17.066666 22.755555v34.133333c0 17.066667 11.377778 28.444444 28.444444 28.444445h216.177778c17.066667 0 28.444444-11.377778 22.755555-28.444445v-34.133333c0-5.688889-5.688889-17.066667-11.377777-22.755555z m-5.688889 56.888888c0 5.688889-5.688889 5.688889-5.688889 5.688889H307.2c-5.688889 0-5.688889-5.688889-5.688889-5.688889v-34.133333s0-5.688889 5.688889-5.688889l79.644444-34.133333-28.444444-34.133333v-56.888889c0-34.133333 22.755556-56.888889 56.888889-56.888889s56.888889 22.755556 56.888889 56.888889v56.888889l-22.755556 34.133333 79.644445 39.822222v34.133333zM705.422222 563.2c-56.888889 0-102.4 45.511111-102.4 102.4s45.511111 102.4 102.4 102.4 102.4-45.511111 102.4-102.4-45.511111-102.4-102.4-102.4z m0 182.044444c-45.511111 0-79.644444-34.133333-79.644444-79.644444s34.133333-79.644444 79.644444-79.644444c45.511111 0 79.644444 34.133333 79.644445 79.644444s-34.133333 79.644444-79.644445 79.644444z" fill="#FFFFFF" p-id="5684"></path><path d="M750.933333 654.222222h-34.133333v-34.133333c0-5.688889-5.688889-11.377778-11.377778-11.377778s-11.377778 5.688889-11.377778 11.377778v34.133333h-34.133333c-5.688889 0-11.377778 5.688889-11.377778 11.377778s5.688889 11.377778 11.377778 11.377778h34.133333v34.133333c0 5.688889 5.688889 11.377778 11.377778 11.377778s11.377778-5.688889 11.377778-11.377778v-34.133333h34.133333c5.688889 0 11.377778-5.688889 11.377778-11.377778s-5.688889-11.377778-11.377778-11.377778zM568.888889 449.422222h136.533333c5.688889 0 11.377778-5.688889 11.377778-11.377778s-5.688889-11.377778-11.377778-11.377777H568.888889c-5.688889 0-11.377778 5.688889-11.377778 11.377777s5.688889 11.377778 11.377778 11.377778zM648.533333 506.311111c0-5.688889-5.688889-11.377778-11.377777-11.377778H568.888889c-5.688889 0-11.377778 5.688889-11.377778 11.377778s5.688889 11.377778 11.377778 11.377778h68.266667c5.688889 0 11.377778 0 11.377777-11.377778z" fill="#FFFFFF" p-id="5685"></path></svg>