<?xml version="1.0" standalone="no"?><!DOCTYPE svg PUBLIC "-//W3C//DTD SVG 1.1//EN" "http://www.w3.org/Graphics/SVG/1.1/DTD/svg11.dtd"><svg t="1497716606124" class="icon" style="" viewBox="0 0 1024 1024" version="1.1" xmlns="http://www.w3.org/2000/svg" p-id="12112" xmlns:xlink="http://www.w3.org/1999/xlink" width="40" height="40"><defs><style type="text/css"></style></defs><path d="M883.859239 213.000162c-7.543813-27.38572-56.460919-44.00319-75.961042-44.00319-0.991584 0-1.89107 0.027629-2.750647 0.083911l-0.99977 0.065492-29.905101-33.724079a388.405077 388.405077 0 0 0-3.724834-4.405334l-0.225127 0.192382-1.340532-1.364067c-7.278777-7.40055-25.958208-25.626657-42.162262-35.013445-6.837732-3.923356-15.767102-5.675256-28.946262-5.675256-27.582195 0-75.708286 8.238638-119.756501 20.500916-84.629469 23.546276-98.41545 44.732807-102.945627 51.695383l-0.096191 0.150426c-11.338233 17.739013-16.274662 37.504172-18.646685 47.0025l-11.600199 56.969503-0.89744 0.445138c-13.099343 6.485715-24.677029 20.576641-30.41266 28.398794-14.037714 19.177781-19.425422 35.610032-16.011672 48.841381a46.842865 46.842865 0 0 0 14.133905 23.239284l1.62194 1.454118-5.91164 5.822612-0.409322 0.152473c-8.085142 3.016707-15.608489 7.348362-22.36231 12.874215l-0.232291 0.164752c-68.069305 41.446971-130.058125 112.775506-174.548408 200.845331-43.119053 85.351923-66.865897 179.312922-66.865897 264.574795 0 7.472182-0.391926 13.632485-0.77055 19.591197-0.735757 11.519358-1.490957 23.327288 1.025353 40.042995l2.927679 19.440771h473.842959v-174.75l3.573385 4.004197c12.113899 13.577227 29.55513 21.36254 47.851844 21.362541 22.916942 0 44.287669-12.311397 55.773258-32.130792l0.591471-1.020236h11.841699v182.53429h111.987561v-213.560934c0.450255-30.264281-10.966773-58.769498-32.148188-80.295767-21.436218-21.797445-50.169633-33.80185-80.905658-33.801851-9.4093 0-18.733667 1.152243-27.712155 3.423983l-1.12359 0.284479-148.979056-148.133805 11.04966 5.370311c23.082718 11.218506 47.850821 16.907065 73.614601 16.907065 92.645027 0 168.016645-74.998111 168.016645-167.181627 0-10.223852-0.932232-20.429285-2.771113-30.333866l-0.344854-1.856277 40.216957-10.866489c12.586666-3.548826 23.006993-11.735275 29.290093-23.038716 6.037507-10.874675 7.495718-23.403013 4.108574-35.279504z m-199.578477 433.606559l0.080841 0.103354a32.94432 32.94432 0 0 0 2.724041 3.114944l10.880815 10.894117 14.189163-5.997597c8.475022-3.589758 17.09126-5.334495 26.337855-5.334495 18.384719 0 35.550681 7.153934 48.333822 20.145829 12.571317 12.779048 19.331277 29.713742 19.033495 47.685045v168.44541h-18.280342l-2.336208 0.667196v-168.732959c0-26.243711-21.350261-47.596018-47.591924-47.596018-26.248827 0-47.604204 21.351284-47.604205 47.596018l-0.040932 2.140756-0.360204 1.778507c-1.703805 8.55791-9.398044 14.775518-18.294668 14.775518-9.529027 0-17.435091-7.212262-18.390859-16.775059l-1.14201-11.412934-9.834995-5.90243c-2.683109-1.604544-4.950755-3.39226-7.351432-5.79396l-60.397579-60.381205v249.637594h-387.086035l0.082888-2.125407c0.098237-2.526543 0.26299-5.132904 0.436951-7.892761l0.047072-0.74292c0.408299-6.365988 0.871857-13.57825 0.871857-22.613021 0-165.172877 97.052406-352.862583 220.949205-427.291736l1.709944-1.022283 1.491981-1.293459c2.87242-2.490727 6.063089-4.437056 9.481955-5.78782l0.204661-0.068561 4.101411-1.139963a36.268018 36.268018 0 0 1 9.644661-1.303692c9.437953 0 18.24555 3.614317 24.801873 10.177803l223.306902 222.046189z m-218.388893-272.54942l20.572548-5.395893 0.632403 1.766226a166.543084 166.543084 0 0 0 7.383155 17.451464l4.952802 10.044774-8.185427-7.644098a79.796394 79.796394 0 0 0-20.283975-13.817703l-5.071506-2.40477z m286.336424-123.524314l8.41874 23.329334c4.668323 12.954033 7.03523 26.583448 7.03523 40.506553 0 66.99074-54.878888 121.491005-122.335232 121.491005-58.873876 0-109.430318-41.748846-120.213919-99.269911l-4.517897-24.102954-77.605496 20.332071 2.555196-4.29277c4.402263-7.395434 12.567223-17.656125 17.70729-21.144576l0.289596-0.196475 20.50501-5.398963 16.579607-81.892125 0.086981-0.332575c1.892093-7.588839 5.424546-21.754466 12.641925-33.181727l0.128936-0.182148c4.031826-5.061272 25.692149-18.48705 78.81402-33.070186 39.178301-10.763135 82.573647-18.280342 105.528452-18.280342 3.683902 0 5.886057 0.190335 7.086395 0.348947l0.446162 0.059352 0.38067 0.240477c11.592013 7.348362 27.876907 23.254633 33.525557 29.382191 0.387833 0.446162 0.738827 0.836041 1.099031 1.217734l47.822169 53.933353 20.273742-5.329379 0.337691 0.023537c6.39771 0.453325 18.85237 5.398964 26.470885 9.733688l4.319375 2.457982-87.380116 23.617907z" p-id="12113" fill="#d81e06"></path></svg>