<?xml version="1.0" standalone="no"?><!DOCTYPE svg PUBLIC "-//W3C//DTD SVG 1.1//EN" "http://www.w3.org/Graphics/SVG/1.1/DTD/svg11.dtd"><svg t="1497748987286" class="icon" style="" viewBox="0 0 1024 1024" version="1.1" xmlns="http://www.w3.org/2000/svg" p-id="2081" xmlns:xlink="http://www.w3.org/1999/xlink" width="28" height="28"><defs><style type="text/css"></style></defs><path d="M935.063585 969.985759c0-131.309931-56.764522-252.961899-156.510181-337.069332h0.89544l-17.940787-13.655465a30.093192 30.093192 0 0 0-42.437476 5.692442 30.285072 30.285072 0 0 0 5.692442 42.405497 378.003748 378.003748 0 0 1 149.762399 302.626858H113.369144c0-209.852842 170.741287-380.562149 380.562149-380.562149 162.330543 0 294.407995-132.045472 294.407995-294.376015S656.261836 0.6396 493.931293 0.6396 199.555278 132.717052 199.555278 295.047595c0 56.764522 16.309806 111.930044 47.202498 159.484323A296.390756 296.390756 0 0 0 352.099938 552.614616 445.673454 445.673454 0 0 0 142.790756 703.560275a436.11143 436.11143 0 0 0-89.927795 266.425484v53.982261h882.200624v-53.982261zM260.125422 295.047595c0-128.94341 104.894441-233.869831 233.837851-233.869831s233.869831 104.894441 233.869831 233.869831c0 128.94341-104.926421 233.869831-233.869831 233.869832-128.94341-0.03198-233.837851-104.958401-233.837851-233.869832z" fill="#0276b1" p-id="2082"></path></svg>