<?xml version="1.0" standalone="no"?><!DOCTYPE svg PUBLIC "-//W3C//DTD SVG 1.1//EN" "http://www.w3.org/Graphics/SVG/1.1/DTD/svg11.dtd"><svg t="1497748908393" class="icon" style="" viewBox="0 0 1024 1024" version="1.1" xmlns="http://www.w3.org/2000/svg" p-id="5913" xmlns:xlink="http://www.w3.org/1999/xlink" width="24" height="24"><defs><style type="text/css"></style></defs><path d="M924.606781 393.931954c0 172.543751 0 345.088526 0 517.632277-275.071869 0-550.142715 0-825.213561 0 0-170.044838 0-340.083535 0-510.136559 18.193361-15.225773 36.385698-30.458709 61.151755-51.193962 8.667404-44.812625-26.670429-123.292024 71.043033-132.934638 9.803273-45.815465-17.760502-101.82306 40.349987-130.948401 157.539013 0 315.077002 0 472.623177 0 49.985438 32.55444 33.345456 85.6231 38.181601 131.080407 94.818529 13.130042 62.697971 89.25072 71.41654 135.425366C881.559359 368.82923 903.080511 381.381104 924.606781 393.931954zM511.728312 407.260517c-102.45444 0-204.91502-0.271176-307.375599 0.124843-47.735188 0.176009-62.485123 14.896268-62.675458 62.997799-0.440022 111.203708-0.373507 222.412532-0.036839 333.62238 0.146333 50.504254 14.440897 65.869197 64.250326 65.986877 204.907856 0.490164 409.830039 0.528026 614.752222-0.029676 47.361681-0.11768 63.085804-16.420995 63.320141-63.708997 0.564865-111.208824 0.491187-222.419695 0.044002-333.621357-0.204661-50.255591-15.173584-65.107857-64.895009-65.269539C716.650495 407.017994 614.189915 407.260517 511.728312 407.260517zM206.147592 361.66404c203.127304 0 403.543869 0 603.725074 0 6.374174-88.195691-4.176113-99.82352-88.069825-99.830683-142.43706-0.021489-284.86798-0.028653-427.297876 0C212.060255 261.854846 197.912024 277.520641 206.147592 361.66404zM735.869209 219.445968c8.111748-77.080539-4.022617-90.899266-76.867692-90.950432-103.699804-0.073678-207.391421-0.190335-311.084061 0.051165-64.551178 0.153496-83.98274 26.457582-66.851571 90.899266C431.577854 219.445968 582.368162 219.445968 735.869209 219.445968z" p-id="5914" fill="#707070"></path><path d="M501.116627 816.994366c0-10.036587-0.38374-19.390629 0.124843-28.698622 0.38374-7.021927-1.564635-9.724479-9.16166-10.682293-41.830711-5.27719-72.511477-25.919323-88.076988-66.337871-0.478907-1.243317-0.956791-2.499937-1.264806-3.791349-0.222057-0.926092-0.163729-1.920746-0.294712-3.866051 14.184047-3.348258 28.392654-6.701632 43.231617-10.206456 8.472975 26.817786 24.365944 44.590568 54.594409 47.14167 0-27.754111 0-54.683437 0-82.539878-2.535753-0.823761-5.610788-1.820462-8.686846-2.818185-11.124362-3.610224-22.447245-6.711865-33.338293-10.92891-29.570479-11.455913-45.731554-32.806173-46.116317-65.047482-0.410346-34.295084 14.549368-58.163701 45.695738-70.894653 11.338233-4.635577 23.619954-7.120165 35.627429-9.904581 5.405103-1.25355 8.231475-2.950192 7.785314-9.085936-0.528026-7.243985-0.124843-14.555507-0.124843-22.314215 9.653871 0 18.210757 0 27.741831 0 0 9.780761 0 19.361977 0 29.574572 25.245987 4.344958 48.63365 11.634991 64.780399 31.917944 7.305383 9.17394 12.405541 20.100804 19.599384 32.048927-15.272845 3.181459-27.557636 6.101975-40.000016 7.968485-2.028193 0.303922-5.65172-3.608178-7.014764-6.334265-7.540743-15.068184-18.433838-25.122167-36.566824-26.619264 0 24.562419 0 48.590672 0 73.059969 13.038968 4.179183 25.925463 8.81476 39.090297 12.432147 30.840402 8.470929 47.015803 29.702486 51.639101 60.051701 4.690836 30.776957-4.587482 56.981782-29.551036 76.594469-15.756869 12.382005-34.325783 17.853623-53.880141 20.018939-5.91164 0.653893-8.178263 2.515287-7.922437 8.586562 0.421602 9.986445 0.113587 20.002566 0.113587 30.67565C519.842107 816.994366 511.30364 816.994366 501.116627 816.994366zM529.646404 739.629347c24.739451 2.050706 45.444005-15.427364 46.107107-38.449707 0.627287-21.929452-20.98494-40.458457-46.107107-39.397289C529.646404 687.742607 529.646404 713.710025 529.646404 739.629347zM500.523109 535.324218c-15.179724 0.660032-28.65155 3.75451-37.163411 16.5837-7.350408 11.075243-8.035 23.608697-0.870834 35.063587 8.559956 13.68365 22.62223 17.028838 38.034245 18.467607C500.523109 581.657476 500.523109 559.077202 500.523109 535.324218z" p-id="5915" fill="#707070"></path></svg>