<?xml version="1.0" standalone="no"?><!DOCTYPE svg PUBLIC "-//W3C//DTD SVG 1.1//EN" "http://www.w3.org/Graphics/SVG/1.1/DTD/svg11.dtd"><svg t="1497758667464" class="icon" style="" viewBox="0 0 1024 1024" version="1.1" xmlns="http://www.w3.org/2000/svg" p-id="1448" xmlns:xlink="http://www.w3.org/1999/xlink" width="50" height="50"><defs><style type="text/css"></style></defs><path d="M512 128c-211.84 0-384 172.16-384 384s172.16 384 384 384 384-172.16 384-384S723.84 128 512 128zM736 531.2 531.2 531.2l0 204.8c0 10.88-8.32 19.2-19.2 19.2s-19.2-8.32-19.2-19.2L492.8 531.2 288 531.2c-10.88 0-19.2-8.32-19.2-19.2s8.32-19.2 19.2-19.2l204.8 0L492.8 288c0-10.88 8.32-19.2 19.2-19.2s19.2 8.32 19.2 19.2l0 204.8 204.8 0c10.88 0 19.2 8.32 19.2 19.2S746.88 531.2 736 531.2z" p-id="1449" fill="rgba(255, 255, 255, 0.6)"></path></svg>