<?xml version="1.0" standalone="no"?><!DOCTYPE svg PUBLIC "-//W3C//DTD SVG 1.1//EN" "http://www.w3.org/Graphics/SVG/1.1/DTD/svg11.dtd"><svg t="1497712824190" class="icon" style="" viewBox="0 0 1025 1024" version="1.1" xmlns="http://www.w3.org/2000/svg" p-id="46457" xmlns:xlink="http://www.w3.org/1999/xlink" width="40" height="40"><defs><style type="text/css"></style></defs><path d="M704.85634 319.425856c0.522401-0.522401 1.044802-1.044802 1.567203-1.567203 16.190452-16.190452 16.190452-41.780144 0-57.970596-15.668051-15.668051-41.257743-15.668051-57.448195-0.522401l-5.744422 5.22202-32.902311 33.424712 57.970596 57.970596L704.85634 319.425856z" p-id="46458" fill="#5da05f"></path><path d="M559.263743 395.718727l11.322325 11.322325-27.745043 27.745043-11.322325-11.322325 27.745043-27.745043Z" p-id="46459" fill="#5da05f"></path><path d="M514.559069 5.116545c-281.357248 0-509.442523 228.085276-509.442523 509.442523s228.085276 509.442523 509.442523 509.442523 509.442523-228.085276 509.442523-509.442523S795.916316 5.116545 514.559069 5.116545zM879.29053 684.483694c0 0-205.768303-49.61417-348.867385 89.305704 0 0 155.111321-200.546282 330.588323-161.89955C861.010473 611.888853 880.857733 662.026419 879.29053 684.483694zM587.87134 298.011393l55.881987-55.881987 0.522401 0.522401c21.933879-16.190452 53.269982-14.100848 73.115252 5.744422 10.967437 10.967437 16.712854 25.068285 16.712854 40.214931 0 15.146645-6.266823 29.7689-16.712854 40.213936-0.522401 1.044802-1.567203 1.567203-2.089604 2.089604l-0.522401 0.522401-41.780144 41.780144L509.009677 537.206398l-79.90547-79.90547L587.87134 298.011393zM428.0604 469.313167l68.938033 68.938033L447.905669 554.441653l-36.035722-36.035722L428.0604 469.313167zM169.020125 611.888853C345.021518 573.24212 500.131844 773.789398 500.131844 773.789398c-143.099082-138.397473-348.867385-89.305704-349.390781-89.305704C149.697256 662.026419 169.020125 611.888853 169.020125 611.888853zM127.239981 797.29048c-7.834026-22.45628-1.567203-78.338267-1.567203-78.338267 167.122565-86.694694 377.592477 73.115252 377.592477 73.637653C320.99704 691.272917 127.239981 797.29048 127.239981 797.29048zM513.710291 785.800642l0-0.523396c-94.529715-186.444439-325.365308-212.557526-325.365308-212.557526 7.31063-22.457275 46.480758-64.237419 46.480758-64.237419 62.14881 8.356427 112.808776 27.679296 153.544118 50.136571l11.489838-28.201697 36.558123 36.035722-20.890072 8.355432c67.893231 44.392149 98.705938 94.006319 98.184532 93.485908l0 0.519416c0.019901-0.031842 83.584169-134.221249 279.407945-160.331352 0 0 39.168139 41.780144 46.480758 64.237419C839.598995 572.720714 608.761412 598.833802 513.710291 785.800642zM527.289734 792.59086c0 0 210.992313-160.332347 377.592477-73.637653 0 0 5.744422 55.358591-1.567203 78.338267C903.314013 797.29048 709.556954 691.795318 527.289734 792.59086z" p-id="46460" fill="#5da05f"></path><path d="M513.710291 715.672529l0 0 0 22.746834 0 0 0-22.746834Z" p-id="46461" fill="#5da05f"></path></svg>