<?xml version="1.0" standalone="no"?><!DOCTYPE svg PUBLIC "-//W3C//DTD SVG 1.1//EN" "http://www.w3.org/Graphics/SVG/1.1/DTD/svg11.dtd"><svg t="1497714503281" class="icon" style="" viewBox="0 0 1024 1024" version="1.1" xmlns="http://www.w3.org/2000/svg" p-id="6387" xmlns:xlink="http://www.w3.org/1999/xlink" width="40" height="40"><defs><style type="text/css"></style></defs><path d="M774.065732 399.32488l-104.266379-17.359334-34.277158-85.722999c-2.91998-7.274865-9.954023-12.031122-17.77074-12.031122l-191.454385 0c-7.856854 0-14.870828 4.766291-17.790808 12.031122l-34.287193 85.722999-104.226242 17.359334c-9.241587 1.525213-16.004704 9.522548-16.004704 18.894581l0 287.171543c0 10.586183 8.559255 19.145439 19.145439 19.145439L770.935032 724.536443c10.586183 0 19.12537-8.56929 19.12537-19.145439L790.060402 418.219461C790.060402 408.857462 783.297286 400.860127 774.065732 399.32488zM522.034297 686.285703c-84.62926 0-153.173542-68.554317-153.173542-153.163508 0-84.62926 68.544282-153.183577 153.173542-153.183577 84.589123 0 153.163508 68.554317 153.163508 153.183577C675.197805 617.731387 606.62342 686.285703 522.034297 686.285703z" p-id="6388" fill="#e1b49d"></path><path d="M512 4.836531c-280.097364 0-507.163469 227.066105-507.163469 507.163469s227.066105 507.163469 507.163469 507.163469 507.163469-227.066105 507.163469-507.163469S792.097364 4.836531 512 4.836531zM828.351279 705.391004c0 31.668241-25.768074 57.44635-57.44635 57.44635L273.123528 762.837354c-31.678275 0-57.44635-25.768074-57.44635-57.44635L215.677178 418.219461c0-28.226477 20.209074-52.037864 48.014111-56.65364l82.99367-13.837295 26.239686-65.71461c8.840216-21.965076 29.771759-36.1034 53.362391-36.1034l191.474454 0c23.580598 0 44.53221 14.12829 53.31222 36.083332l26.279824 65.734679 82.99367 13.837295c27.805037 4.625811 48.014111 28.437197 47.994042 56.65364L828.341244 705.391004z" p-id="6389" fill="#e1b49d"></path><path d="M596.779775 445.914121c-48.174659-41.291132-120.712592-35.7522-161.953552 12.442528-41.281098 48.154591-35.7522 120.702558 12.442528 161.983655 48.164625 41.271063 120.672455 35.732131 161.953552-12.462597S644.934366 487.165115 596.779775 445.914121zM522.034297 475.665811c-31.748515 0-57.44635 25.727937-57.44635 57.44635l0 0.020069c0 5.268006-4.314748 9.562685-9.572719 9.562685-5.308143 0-9.572719-4.294679-9.572719-9.562685l0-0.020069c0-42.294561 34.297227-76.591788 76.591788-76.591788 5.268006 0 9.562685 4.294679 9.562685 9.562685C531.596982 471.3912 527.302303 475.665811 522.034297 475.665811z" p-id="6390" fill="#e1b49d"></path></svg>