<?xml version="1.0" standalone="no"?><!DOCTYPE svg PUBLIC "-//W3C//DTD SVG 1.1//EN" "http://www.w3.org/Graphics/SVG/1.1/DTD/svg11.dtd"><svg t="1497749340458" class="icon" style="" viewBox="0 0 1024 1024" version="1.1" xmlns="http://www.w3.org/2000/svg" p-id="3955" xmlns:xlink="http://www.w3.org/1999/xlink" width="24" height="24"><defs><style type="text/css"></style></defs><path d="M926.474731 222.134286c7.658163-7.471379 7.844948-19.799153 0.186784-27.457317l-185.103406-188.839096c-7.471379-7.658163-19.799153-7.844948-27.457317-0.186784l-119.542058 117.11386L806.932672 339.248146 926.474731 222.134286 926.474731 222.134286zM926.474731 222.134286" p-id="3956" fill="#707070"></path><path d="M258.346695 850.290446c7.471379 7.658163 2.054629 2.428198 13.635266 13.822051L779.288571 366.331894 566.914633 150.035482l-507.306611 497.593818c13.635266 13.822051 6.163887 6.163887 13.635266 13.822051L258.346695 850.290446 258.346695 850.290446zM258.346695 850.290446" p-id="3957" fill="#707070"></path><path d="M30.469646 673.405557 7.681941 910.808613l237.776626-18.118093L30.469646 673.405557zM30.469646 673.405557" p-id="3958" fill="#707070"></path><path d="M7.681941 970.579643l1008.636118 0 0 53.420357-1008.636118 0L7.681941 970.579643 7.681941 970.579643zM7.681941 970.579643" p-id="3959" fill="#707070"></path></svg>