<?xml version="1.0" standalone="no"?><!DOCTYPE svg PUBLIC "-//W3C//DTD SVG 1.1//EN" "http://www.w3.org/Graphics/SVG/1.1/DTD/svg11.dtd"><svg t="1497712587253" class="icon" style="" viewBox="0 0 1024 1024" version="1.1" xmlns="http://www.w3.org/2000/svg" p-id="32899" xmlns:xlink="http://www.w3.org/1999/xlink" width="40" height="40"><defs><style type="text/css"></style></defs><path d="M512 512m-512 0a512 512 0 1 0 1024 0 512 512 0 1 0-1024 0Z" fill="#1B89D0" p-id="32900"></path><path d="M753.509434 705.207547h-9.660377v48.301887H647.245283v-48.301887H386.415094v48.301887H289.811321v-48.301887h-9.660378a38.641509 38.641509 0 0 1-38.641509-38.641509V483.018868a38.641509 38.641509 0 0 1 38.641509-38.64151l24.460076-138.578113L327.071396 280.150943h380.203472C724.199849 280.150943 724.528302 289.811321 724.528302 289.811321s11.041811 2.115623 13.07049 19.320754L753.509434 444.377358a38.641509 38.641509 0 0 1 38.641509 38.64151v183.54717a38.641509 38.641509 0 0 1-38.641509 38.641509z m-64.463698-386.415094H352.700377L328.45283 444.377358h376.754717zM753.509434 550.641509h-86.943396v28.981133H367.09434v-28.981133h-86.943397v48.301887h473.358491v-48.301887z" fill="#FFFFFF" p-id="32901"></path></svg>