<?xml version="1.0" standalone="no"?><!DOCTYPE svg PUBLIC "-//W3C//DTD SVG 1.1//EN" "http://www.w3.org/Graphics/SVG/1.1/DTD/svg11.dtd"><svg t="1497716459379" class="icon" style="" viewBox="0 0 1024 1024" version="1.1" xmlns="http://www.w3.org/2000/svg" p-id="10590" xmlns:xlink="http://www.w3.org/1999/xlink" width="45" height="45"><defs><style type="text/css"></style></defs><path d="M512.803807 70.430072c243.284909 0 440.506712 197.221804 440.506712 440.507736 0 243.283886-197.22078 440.508759-440.506712 440.508759-243.285932 0-440.507736-197.22385-440.507736-440.508759C72.296071 267.651876 269.517875 70.430072 512.803807 70.430072L512.803807 70.430072zM638.789173 470.215338l0 251.186879c0 44.030819 67.451228 44.030819 67.451228 0L706.240401 470.215338C706.240401 426.189635 638.789173 426.189635 638.789173 470.215338L638.789173 470.215338zM451.327664 553.75294l0 167.734212c0 44.025703 67.450205 44.025703 67.450205 0L518.777869 553.75294C518.777869 509.727237 451.327664 509.727237 451.327664 553.75294L451.327664 553.75294zM263.870248 575.24851l0 146.276505c0 44.025703 67.445088 44.025703 67.445088 0.002047L331.315336 575.24851C331.315336 531.222807 263.870248 531.222807 263.870248 575.24851L263.870248 575.24851zM719.49017 238.594073c-6.217608-7.878434-15.668865-13.090133-26.220175-13.090133L581.135078 225.50394c-43.512003 0-43.512003 68.27499 0 68.27499L621.099279 293.77893c-85.701894 89.446171-206.954469 148.060127-331.428412 142.111648-43.513026-2.072195-43.310412 66.201771 0 68.273966 139.143037 6.646374 272.070512-56.865125 369.870955-153.820318l0 35.344996c0 44.024679 67.451228 44.025703 67.451228 0L726.993051 267.873933C730.962455 256.525468 727.172129 246.020206 719.49017 238.594073z" p-id="10591" fill="#707070"></path></svg>