<?xml version="1.0" standalone="no"?><!DOCTYPE svg PUBLIC "-//W3C//DTD SVG 1.1//EN" "http://www.w3.org/Graphics/SVG/1.1/DTD/svg11.dtd"><svg t="1497779457124" class="icon" style="" viewBox="0 0 1024 1024" version="1.1" xmlns="http://www.w3.org/2000/svg" p-id="2369" xmlns:xlink="http://www.w3.org/1999/xlink" width="42" height="42"><defs><style type="text/css"></style></defs><path d="M512.058514 1024C229.493029 1024 0 794.858057 0 512.146286 0 229.288229 229.493029 0 512.058514 0 794.8288 0 1024 229.288229 1024 512.146286 1024 794.858057 794.8288 1024 512.058514 1024z m-9.947428-705.916343c0-39.760457-13.575314-107.051886-130.340572-67.291428-116.648229 39.965257-216.795429 179.872914-216.795428 179.872914-69.632 92.9792-60.445257 164.864-60.445257 164.864 17.408 158.602971 185.929143 202.166857 316.971885 212.465371 137.888914 10.825143 323.964343-47.5136 380.372115-167.467885 56.466286-120.100571-46.08-167.643429-78.701715-174.109258-32.5632-6.319543-16.735086-23.844571-16.735085-23.844571s31.802514-52.4288-6.290286-90.609371c-47.221029-47.221029-161.967543 6.026971-161.967543 6.026971-43.856457 13.604571-32.212114-6.173257-26.038857-39.906743z m255.414857 69.924572a22.557257 22.557257 0 0 0 45.056 1.2288c16.822857-151.259429-123.874743-125.220571-123.874743-125.220572a22.528 22.528 0 0 0-22.469486 22.7328c0 12.375771 10.005943 22.528 22.469486 22.528 101.083429-22.352457 78.789486 78.730971 78.789486 78.730972z m6.261028-249.183086c-48.625371-11.410286-98.655086 7.753143-112.64 10.474057a30.076343 30.076343 0 0 0-3.920457 0.643657 32.621714 32.621714 0 0 0 8.923429 64.073143s17.700571-2.750171 29.696-7.431314c11.907657-4.827429 112.64-4.271543 162.669714 79.784228 27.326171 61.352229 11.995429 101.024914 10.122972 107.607772 0 0-6.495086 13.165714-6.495086 28.906057 0 18.139429 14.599314 27.2384 32.680228 27.2384 15.125943 0 27.8528 19.075657 31.5392-35.401143h0.175543c53.774629-163.371886-65.711543-255.5904-152.751543-275.894857zM669.549714 579.876571c0 91.399314-110.855314 177.181257-247.808 183.413029-136.923429 6.378057-247.544686-62.317714-247.544685-153.687771 0-91.487086 110.650514-164.805486 247.515428-171.125029 136.981943-6.290286 247.808 50.117486 247.808 141.399771z m-275.163428-81.130057c-137.654857 16.091429-121.768229 145.115429-121.768229 145.115429s-1.375086 40.813714 36.951772 61.674057c80.515657 43.593143 163.488914 17.2032 205.385142-36.951771 41.925486-54.125714 17.320229-185.899886-120.539428-169.837715z m22.410971 109.685029c-4.798171-7.606857-2.984229-19.836343 5.851429-26.2144 10.181486-7.636114 20.772571-5.441829 25.365943 2.194286 4.622629 7.811657 1.287314 19.485257-7.197258 26.2144-8.689371 6.495086-19.426743 5.558857-23.990857-2.194286z m-57.109943 71.387428c-25.717029 2.984229-46.431086-11.8784-46.431085-33.353142 0-21.445486 18.432-43.885714 44.119771-46.548115 29.520457-2.808686 48.713143 14.218971 48.713143 35.693715 0 21.445486-20.772571 41.252571-46.401829 44.178285z" fill="#0276b1" p-id="2370"></path></svg>